<svg width="51" height="48" viewBox="0 0 51 48" fill="none" xmlns="http://www.w3.org/2000/svg">
<path d="M1 22.5L25.5 1L50 22.5V29.5L25.5 47L1 29.5V22.5Z" fill="#9D4289"/>
<path d="M25.5 1L1 22.5V29.5M25.5 1L50 22.5V29.5M25.5 1L7 29M25.5 1L43.5 29M1 29.5L25.5 47M1 29.5L7 29M25.5 47L50 29.5M25.5 47V33M50 29.5L43.5 29M7 29L25.5 33M43.5 29L25.5 33" stroke="black" stroke-linejoin="round"/>
<path d="M19.3955 28V27.1592H21.7334V19.0381L19.3955 20.0225V19.1816L21.7334 18.1973H22.6152V27.1592H24.9531V28H19.3955ZM31.7344 25.7305C31.7344 26.0632 31.6706 26.3753 31.543 26.667C31.4199 26.9587 31.249 27.2139 31.0303 27.4326C30.8115 27.6514 30.5563 27.8245 30.2646 27.9521C29.973 28.0752 29.6608 28.1367 29.3281 28.1367H28.9111C28.5785 28.1367 28.264 28.0752 27.9678 27.9521C27.6761 27.8245 27.4209 27.6514 27.2021 27.4326C26.9834 27.2139 26.8102 26.9587 26.6826 26.667C26.5596 26.3753 26.498 26.0632 26.498 25.7305V20.4668C26.498 20.1341 26.5596 19.8219 26.6826 19.5303C26.8102 19.2386 26.9834 18.9834 27.2021 18.7646C27.4209 18.5459 27.6761 18.375 27.9678 18.252C28.264 18.1243 28.5785 18.0605 28.9111 18.0605H29.3281C29.6608 18.0605 29.973 18.1243 30.2646 18.252C30.5563 18.375 30.8115 18.5459 31.0303 18.7646C31.249 18.9834 31.4199 19.2386 31.543 19.5303C31.6706 19.8219 31.7344 20.1341 31.7344 20.4668V25.7305ZM30.8525 20.4668C30.8525 20.248 30.8115 20.0452 30.7295 19.8584C30.6475 19.667 30.5358 19.5007 30.3945 19.3594C30.2533 19.2181 30.0869 19.1064 29.8955 19.0244C29.7087 18.9424 29.5059 18.9014 29.2871 18.9014H28.9521C28.7334 18.9014 28.5283 18.9424 28.3369 19.0244C28.1501 19.1064 27.9837 19.2181 27.8379 19.3594C27.6966 19.5007 27.585 19.667 27.5029 19.8584C27.4209 20.0452 27.3799 20.248 27.3799 20.4668V25.7305C27.3799 25.9492 27.4209 26.1543 27.5029 26.3457C27.585 26.5326 27.6966 26.6989 27.8379 26.8447C27.9837 26.986 28.1501 27.0977 28.3369 27.1797C28.5283 27.2617 28.7334 27.3027 28.9521 27.3027H29.2871C29.5059 27.3027 29.7087 27.2617 29.8955 27.1797C30.0869 27.0977 30.2533 26.986 30.3945 26.8447C30.5358 26.6989 30.6475 26.5326 30.7295 26.3457C30.8115 26.1543 30.8525 25.9492 30.8525 25.7305V20.4668Z" fill="white"/>
</svg>
