<svg width="67" height="67" viewBox="0 0 67 67" fill="none" xmlns="http://www.w3.org/2000/svg">
<path d="M17.1009 6.12825L33.7982 1L49.8991 6.12825L63.0184 16.3847L66 32.9091L63.0184 48.8636L49.8991 61.3994L33.7982 66L17.1009 61.3994L5.17431 48.8636L1 32.9091L5.17431 16.3847L17.1009 6.12825Z" fill="#4B6DE2"/>
<path d="M33.7982 1L17.1009 6.12825M33.7982 1L49.8991 6.12825M33.7982 1V16.3847M5.17431 16.3847L17.1009 6.12825M5.17431 16.3847L1 32.9091M5.17431 16.3847L17.1009 20.9432M5.17431 48.8636L17.1009 61.3994M5.17431 48.8636L1 32.9091M5.17431 48.8636L17.1009 41.0833M33.7982 66L17.1009 61.3994M33.7982 66L49.8991 61.3994M33.7982 66L17.1009 41.0833M33.7982 66L49.8991 41.0833M33.7982 66V47.1542M63.0184 48.8636L49.8991 61.3994M63.0184 48.8636L66 32.9091M63.0184 48.8636L49.8991 41.0833M63.0184 16.3847L49.8991 6.12825M63.0184 16.3847L66 32.9091M63.0184 16.3847L49.8991 20.9432M17.1009 6.12825L33.7982 16.3847M17.1009 6.12825V20.9432M49.8991 6.12825L33.7982 16.3847M49.8991 6.12825V20.9432M17.1009 61.3994V41.0833M49.8991 61.3994V41.0833M66 32.9091L49.8991 20.9432M66 32.9091H49.8991M66 32.9091L49.8991 41.0833M1 32.9091H17.1009M1 32.9091L17.1009 20.9432M1 32.9091L17.1009 41.0833M33.7982 16.3847L17.1009 20.9432M33.7982 16.3847L49.8991 20.9432M33.7982 16.3847L25.4495 28.734M33.7982 16.3847L41.8486 29.5465M17.1009 20.9432V32.9091M17.1009 20.9432C17.6535 21.022 22.8969 26.1699 25.4495 28.734M49.8991 20.9432V32.9091M49.8991 20.9432L41.8486 29.5465M49.8991 32.9091V41.0833M17.1009 32.9091V41.0833M49.8991 41.0833L41.8486 29.5465M49.8991 41.0833L33.7982 47.1542M49.8991 41.0833H33.7982H17.1009M17.1009 41.0833L25.4495 28.734M17.1009 41.0833L33.7982 47.1542" stroke="black"/>
<path d="M25.1797 39V38.2793H27.1836V31.3184L25.1797 32.1621V31.4414L27.1836 30.5977H27.9395V38.2793H29.9434V39H25.1797ZM35.7559 37.0547C35.7559 37.3398 35.7012 37.6074 35.5918 37.8574C35.4863 38.1074 35.3398 38.3262 35.1523 38.5137C34.9648 38.7012 34.7461 38.8496 34.4961 38.959C34.2461 39.0645 33.9785 39.1172 33.6934 39.1172H33.3359C33.0508 39.1172 32.7812 39.0645 32.5273 38.959C32.2773 38.8496 32.0586 38.7012 31.8711 38.5137C31.6836 38.3262 31.5352 38.1074 31.4258 37.8574C31.3203 37.6074 31.2676 37.3398 31.2676 37.0547V32.543C31.2676 32.2578 31.3203 31.9902 31.4258 31.7402C31.5352 31.4902 31.6836 31.2715 31.8711 31.084C32.0586 30.8965 32.2773 30.75 32.5273 30.6445C32.7812 30.5352 33.0508 30.4805 33.3359 30.4805H33.6934C33.9785 30.4805 34.2461 30.5352 34.4961 30.6445C34.7461 30.75 34.9648 30.8965 35.1523 31.084C35.3398 31.2715 35.4863 31.4902 35.5918 31.7402C35.7012 31.9902 35.7559 32.2578 35.7559 32.543V37.0547ZM35 32.543C35 32.3555 34.9648 32.1816 34.8945 32.0215C34.8242 31.8574 34.7285 31.7148 34.6074 31.5938C34.4863 31.4727 34.3438 31.377 34.1797 31.3066C34.0195 31.2363 33.8457 31.2012 33.6582 31.2012H33.3711C33.1836 31.2012 33.0078 31.2363 32.8438 31.3066C32.6836 31.377 32.541 31.4727 32.416 31.5938C32.2949 31.7148 32.1992 31.8574 32.1289 32.0215C32.0586 32.1816 32.0234 32.3555 32.0234 32.543V37.0547C32.0234 37.2422 32.0586 37.418 32.1289 37.582C32.1992 37.7422 32.2949 37.8848 32.416 38.0098C32.541 38.1309 32.6836 38.2266 32.8438 38.2969C33.0078 38.3672 33.1836 38.4023 33.3711 38.4023H33.6582C33.8457 38.4023 34.0195 38.3672 34.1797 38.2969C34.3438 38.2266 34.4863 38.1309 34.6074 38.0098C34.7285 37.8848 34.8242 37.7422 34.8945 37.582C34.9648 37.418 35 37.2422 35 37.0547V32.543ZM41.9316 37.0547C41.9316 37.3398 41.877 37.6074 41.7676 37.8574C41.6621 38.1074 41.5156 38.3262 41.3281 38.5137C41.1406 38.7012 40.9219 38.8496 40.6719 38.959C40.4219 39.0645 40.1543 39.1172 39.8691 39.1172H39.5117C39.2266 39.1172 38.957 39.0645 38.7031 38.959C38.4531 38.8496 38.2344 38.7012 38.0469 38.5137C37.8594 38.3262 37.7109 38.1074 37.6016 37.8574C37.4961 37.6074 37.4434 37.3398 37.4434 37.0547V32.543C37.4434 32.2578 37.4961 31.9902 37.6016 31.7402C37.7109 31.4902 37.8594 31.2715 38.0469 31.084C38.2344 30.8965 38.4531 30.75 38.7031 30.6445C38.957 30.5352 39.2266 30.4805 39.5117 30.4805H39.8691C40.1543 30.4805 40.4219 30.5352 40.6719 30.6445C40.9219 30.75 41.1406 30.8965 41.3281 31.084C41.5156 31.2715 41.6621 31.4902 41.7676 31.7402C41.877 31.9902 41.9316 32.2578 41.9316 32.543V37.0547ZM41.1758 32.543C41.1758 32.3555 41.1406 32.1816 41.0703 32.0215C41 31.8574 40.9043 31.7148 40.7832 31.5938C40.6621 31.4727 40.5195 31.377 40.3555 31.3066C40.1953 31.2363 40.0215 31.2012 39.834 31.2012H39.5469C39.3594 31.2012 39.1836 31.2363 39.0195 31.3066C38.8594 31.377 38.7168 31.4727 38.5918 31.5938C38.4707 31.7148 38.375 31.8574 38.3047 32.0215C38.2344 32.1816 38.1992 32.3555 38.1992 32.543V37.0547C38.1992 37.2422 38.2344 37.418 38.3047 37.582C38.375 37.7422 38.4707 37.8848 38.5918 38.0098C38.7168 38.1309 38.8594 38.2266 39.0195 38.2969C39.1836 38.3672 39.3594 38.4023 39.5469 38.4023H39.834C40.0215 38.4023 40.1953 38.3672 40.3555 38.2969C40.5195 38.2266 40.6621 38.1309 40.7832 38.0098C40.9043 37.8848 41 37.7422 41.0703 37.582C41.1406 37.418 41.1758 37.2422 41.1758 37.0547V32.543Z" fill="white"/>
</svg>
