<svg width="45" height="48" viewBox="0 0 45 48" fill="none" xmlns="http://www.w3.org/2000/svg">
<path d="M1 16.1702L10 3.93617L22.5 1L35 3.93617L44 16.1702V31.8298L36.5 41.617L22.5 47L8 41.617L1 31.8298V16.1702Z" fill="#FFE74C"/>
<path d="M1 16.1702L10 3.93617L22.5 1M1 16.1702V31.8298L8 41.617M1 16.1702L8 19.1064M22.5 1L35 3.93617L44 16.1702M22.5 1V9.31915M22.5 47L8 41.617M22.5 47L36.5 41.617M22.5 47V35.7447M8 41.617L13.5 35.7447M36.5 41.617L44 31.8298V16.1702M36.5 41.617L31.5 35.7447M44 16.1702L36.5 19.1064M8 19.1064L13.5 35.7447M8 19.1064L22.5 9.31915M13.5 35.7447H22.5M22.5 35.7447H31.5M31.5 35.7447L36.5 19.1064M36.5 19.1064L22.5 9.31915" stroke="black" stroke-width="2" stroke-linejoin="round"/>
</svg>
