<svg width="69" height="69" viewBox="0 0 69 69" fill="none" xmlns="http://www.w3.org/2000/svg">
<path d="M18.1009 7.12825L34.7982 2L50.8991 7.12825L64.0184 17.3847L67 33.9091L64.0184 49.8636L50.8991 62.3994L34.7982 67L18.1009 62.3994L6.17431 49.8636L2 33.9091L6.17431 17.3847L18.1009 7.12825Z" fill="#4B6DE2"/>
<path d="M34.7982 2L18.1009 7.12825M34.7982 2L50.8991 7.12825M34.7982 2V17.3847M6.17431 17.3847L18.1009 7.12825M6.17431 17.3847L2 33.9091M6.17431 17.3847L18.1009 21.9432M6.17431 49.8636L18.1009 62.3994M6.17431 49.8636L2 33.9091M6.17431 49.8636L18.1009 42.0833M34.7982 67L18.1009 62.3994M34.7982 67L50.8991 62.3994M34.7982 67L18.1009 42.0833M34.7982 67L50.8991 42.0833M34.7982 67V48.1542M64.0184 49.8636L50.8991 62.3994M64.0184 49.8636L67 33.9091M64.0184 49.8636L50.8991 42.0833M64.0184 17.3847L50.8991 7.12825M64.0184 17.3847L67 33.9091M64.0184 17.3847L50.8991 21.9432M18.1009 7.12825L34.7982 17.3847M18.1009 7.12825V21.9432M50.8991 7.12825L34.7982 17.3847M50.8991 7.12825V21.9432M18.1009 62.3994V42.0833M50.8991 62.3994V42.0833M67 33.9091L50.8991 21.9432M67 33.9091H50.8991M67 33.9091L50.8991 42.0833M2 33.9091H18.1009M2 33.9091L18.1009 21.9432M2 33.9091L18.1009 42.0833M34.7982 17.3847L18.1009 21.9432M34.7982 17.3847L50.8991 21.9432M34.7982 17.3847L26.4495 29.734M34.7982 17.3847L42.8486 30.5465M18.1009 21.9432V33.9091M18.1009 21.9432C18.6535 22.022 23.8969 27.1699 26.4495 29.734M50.8991 21.9432V33.9091M50.8991 21.9432L42.8486 30.5465M50.8991 33.9091V42.0833M18.1009 33.9091V42.0833M50.8991 42.0833L42.8486 30.5465M50.8991 42.0833L34.7982 48.1542M50.8991 42.0833H34.7982H18.1009M18.1009 42.0833L26.4495 29.734M18.1009 42.0833L34.7982 48.1542" stroke="black" stroke-width="2"/>
</svg>
