<svg width="45" height="48" viewBox="0 0 45 48" fill="none" xmlns="http://www.w3.org/2000/svg">
<path d="M1 16.1702L10 3.93617L22.5 1L35 3.93617L44 16.1702V31.8298L36.5 41.617L22.5 47L8 41.617L1 31.8298V16.1702Z" fill="#FFE851"/>
<path d="M1 16.1702L10 3.93617L22.5 1M1 16.1702V31.8298L8 41.617M1 16.1702L8 19.1064M22.5 1L35 3.93617L44 16.1702M22.5 1V9.31915M22.5 47L8 41.617M22.5 47L36.5 41.617M22.5 47V35.7447M8 41.617L13.5 35.7447M36.5 41.617L44 31.8298V16.1702M36.5 41.617L31.5 35.7447M44 16.1702L36.5 19.1064M8 19.1064L13.5 35.7447M8 19.1064L22.5 9.31915M13.5 35.7447H22.5M22.5 35.7447H31.5M31.5 35.7447L36.5 19.1064M36.5 19.1064L22.5 9.31915" stroke="black" stroke-linejoin="round"/>
<path d="M16.5391 30V29.1592H18.877V21.0381L16.5391 22.0225V21.1816L18.877 20.1973H19.7588V29.1592H22.0967V30H16.5391ZM25.8838 20.9014C25.665 20.9014 25.46 20.9424 25.2686 21.0244C25.0817 21.1064 24.9176 21.2181 24.7764 21.3594C24.6351 21.5007 24.5234 21.667 24.4414 21.8584C24.3594 22.0452 24.3184 22.248 24.3184 22.4668V22.8633L23.4365 22.7197V22.4668C23.4365 22.1341 23.498 21.8219 23.6211 21.5303C23.7487 21.2386 23.9219 20.9834 24.1406 20.7646C24.3594 20.5459 24.6146 20.375 24.9062 20.252C25.1979 20.1243 25.5101 20.0605 25.8428 20.0605H26.2598C26.5924 20.0605 26.9046 20.1198 27.1963 20.2383C27.4925 20.3568 27.75 20.5277 27.9688 20.751C28.1875 20.9743 28.3584 21.2432 28.4814 21.5576C28.609 21.8675 28.6729 22.2184 28.6729 22.6104C28.6729 22.9977 28.6136 23.3874 28.4951 23.7793C28.3812 24.1712 28.2285 24.5563 28.0371 24.9346C27.8503 25.3128 27.6338 25.6797 27.3877 26.0352C27.1462 26.3906 26.8978 26.7256 26.6426 27.04C26.0456 27.7738 25.3688 28.4801 24.6123 29.1592H28.7412V30H23.2246V29.3027C24.0768 28.6009 24.8379 27.874 25.5078 27.1221C25.7949 26.7985 26.0752 26.4544 26.3486 26.0898C26.6221 25.7253 26.8659 25.3516 27.0801 24.9688C27.2943 24.5814 27.4652 24.1895 27.5928 23.793C27.7249 23.3919 27.791 22.9977 27.791 22.6104C27.791 22.3232 27.7477 22.0726 27.6611 21.8584C27.5745 21.6442 27.4583 21.4665 27.3125 21.3252C27.1667 21.1839 26.998 21.0791 26.8066 21.0107C26.6198 20.9378 26.4238 20.9014 26.2188 20.9014H25.8838Z" fill="black"/>
</svg>
