<svg width="49" height="57" viewBox="0 0 49 57" fill="none" xmlns="http://www.w3.org/2000/svg">
<path d="M1 14.4952L24.5 1L48 14.4952V42.0048L24.5 55.5L1 42.0048V14.4952Z" fill="#F3683D"/>
<path d="M24.5 1L1 14.4952M24.5 1L48 14.4952M24.5 1V11.9M1 14.4952V42.0048M1 14.4952L24.5 11.9M1 14.4952L9.35556 36.8143M1 42.0048L24.5 55.5M1 42.0048L9.35556 36.8143M24.5 55.5L48 42.0048M24.5 55.5L39.6444 36.8143M24.5 55.5L9.35556 36.8143M48 42.0048V14.4952M48 42.0048L39.6444 36.8143M48 14.4952L24.5 11.9M48 14.4952L39.6444 36.8143M24.5 11.9L9.35556 36.8143M24.5 11.9L39.6444 36.8143M9.35556 36.8143H39.6444" stroke="black" stroke-width="2" stroke-linejoin="round"/>
</svg>
