<svg width="49" height="56" viewBox="0 0 49 56" fill="none" xmlns="http://www.w3.org/2000/svg">
<path d="M1 14.4952L24.5 1L48 14.4952V42.0048L24.5 55.5L1 42.0048V14.4952Z" fill="#F3683D"/>
<path d="M24.5 1L1 14.4952M24.5 1L48 14.4952M24.5 1V11.9M1 14.4952V42.0048M1 14.4952L24.5 11.9M1 14.4952L9.35556 36.8143M1 42.0048L24.5 55.5M1 42.0048L9.35556 36.8143M24.5 55.5L48 42.0048M24.5 55.5L39.6444 36.8143M24.5 55.5L9.35556 36.8143M48 42.0048V14.4952M48 42.0048L39.6444 36.8143M48 14.4952L24.5 11.9M48 14.4952L39.6444 36.8143M24.5 11.9L9.35556 36.8143M24.5 11.9L39.6444 36.8143M9.35556 36.8143H39.6444" stroke="black" stroke-linejoin="round"/>
<path d="M20.6582 24.9014C20.4395 24.9014 20.2344 24.9424 20.043 25.0244C19.8561 25.1064 19.6921 25.2181 19.5508 25.3594C19.4095 25.5007 19.2979 25.667 19.2158 25.8584C19.1338 26.0452 19.0928 26.248 19.0928 26.4668V26.8633L18.2109 26.7197V26.4668C18.2109 26.1341 18.2725 25.8219 18.3955 25.5303C18.5231 25.2386 18.6963 24.9834 18.915 24.7646C19.1338 24.5459 19.389 24.375 19.6807 24.252C19.9723 24.1243 20.2845 24.0605 20.6172 24.0605H21.0342C21.3669 24.0605 21.679 24.1198 21.9707 24.2383C22.2669 24.3568 22.5244 24.5277 22.7432 24.751C22.9619 24.9743 23.1328 25.2432 23.2559 25.5576C23.3835 25.8675 23.4473 26.2184 23.4473 26.6104C23.4473 26.9977 23.388 27.3874 23.2695 27.7793C23.1556 28.1712 23.0029 28.5563 22.8115 28.9346C22.6247 29.3128 22.4082 29.6797 22.1621 30.0352C21.9206 30.3906 21.6722 30.7256 21.417 31.04C20.82 31.7738 20.1432 32.4801 19.3867 33.1592H23.5156V34H17.999V33.3027C18.8512 32.6009 19.6123 31.874 20.2822 31.1221C20.5693 30.7985 20.8496 30.4544 21.123 30.0898C21.3965 29.7253 21.6403 29.3516 21.8545 28.9688C22.0687 28.5814 22.2396 28.1895 22.3672 27.793C22.4993 27.3919 22.5654 26.9977 22.5654 26.6104C22.5654 26.3232 22.5221 26.0726 22.4355 25.8584C22.349 25.6442 22.2327 25.4665 22.0869 25.3252C21.9411 25.1839 21.7725 25.0791 21.5811 25.0107C21.3942 24.9378 21.1982 24.9014 20.9932 24.9014H20.6582ZM30.5703 31.7305C30.5703 32.0632 30.5065 32.3753 30.3789 32.667C30.2559 32.9587 30.085 33.2139 29.8662 33.4326C29.6475 33.6514 29.3923 33.8245 29.1006 33.9521C28.8089 34.0752 28.4967 34.1367 28.1641 34.1367H27.7471C27.4144 34.1367 27.0999 34.0752 26.8037 33.9521C26.512 33.8245 26.2568 33.6514 26.0381 33.4326C25.8193 33.2139 25.6462 32.9587 25.5186 32.667C25.3955 32.3753 25.334 32.0632 25.334 31.7305V26.4668C25.334 26.1341 25.3955 25.8219 25.5186 25.5303C25.6462 25.2386 25.8193 24.9834 26.0381 24.7646C26.2568 24.5459 26.512 24.375 26.8037 24.252C27.0999 24.1243 27.4144 24.0605 27.7471 24.0605H28.1641C28.4967 24.0605 28.8089 24.1243 29.1006 24.252C29.3923 24.375 29.6475 24.5459 29.8662 24.7646C30.085 24.9834 30.2559 25.2386 30.3789 25.5303C30.5065 25.8219 30.5703 26.1341 30.5703 26.4668V31.7305ZM29.6885 26.4668C29.6885 26.248 29.6475 26.0452 29.5654 25.8584C29.4834 25.667 29.3717 25.5007 29.2305 25.3594C29.0892 25.2181 28.9229 25.1064 28.7314 25.0244C28.5446 24.9424 28.3418 24.9014 28.123 24.9014H27.7881C27.5693 24.9014 27.3643 24.9424 27.1729 25.0244C26.986 25.1064 26.8197 25.2181 26.6738 25.3594C26.5326 25.5007 26.4209 25.667 26.3389 25.8584C26.2568 26.0452 26.2158 26.248 26.2158 26.4668V31.7305C26.2158 31.9492 26.2568 32.1543 26.3389 32.3457C26.4209 32.5326 26.5326 32.6989 26.6738 32.8447C26.8197 32.986 26.986 33.0977 27.1729 33.1797C27.3643 33.2617 27.5693 33.3027 27.7881 33.3027H28.123C28.3418 33.3027 28.5446 33.2617 28.7314 33.1797C28.9229 33.0977 29.0892 32.986 29.2305 32.8447C29.3717 32.6989 29.4834 32.5326 29.5654 32.3457C29.6475 32.1543 29.6885 31.9492 29.6885 31.7305V26.4668Z" fill="black"/>
</svg>
