<svg width="44" height="42" viewBox="0 0 44 42" fill="none" xmlns="http://www.w3.org/2000/svg">
<path d="M1 8.5L9.64706 1H43V31L33.7353 41H1V8.5Z" fill="#EF3F32"/>
<path d="M1 8.5L9.64706 1H43M1 8.5V41H33.7353M1 8.5H33.7353M43 1V31L33.7353 41M43 1L33.7353 8.5M33.7353 41V8.5" stroke="black" stroke-linejoin="round"/>
<path d="M20.2549 26.7305C20.2549 27.0632 20.1911 27.3753 20.0635 27.667C19.9404 27.9587 19.7695 28.2139 19.5508 28.4326C19.332 28.6514 19.0768 28.8245 18.7852 28.9521C18.4935 29.0752 18.1813 29.1367 17.8486 29.1367H17.4248C17.0921 29.1367 16.7799 29.0752 16.4883 28.9521C16.1966 28.8245 15.9414 28.6514 15.7227 28.4326C15.5039 28.2139 15.3307 27.9587 15.2031 27.667C15.0801 27.3753 15.0186 27.0632 15.0186 26.7305V21.4668C15.0186 21.1341 15.0801 20.8219 15.2031 20.5303C15.3307 20.2386 15.5039 19.9834 15.7227 19.7646C15.9414 19.5459 16.1966 19.375 16.4883 19.252C16.7799 19.1243 17.0921 19.0605 17.4248 19.0605H17.8486C18.1813 19.0605 18.4935 19.1243 18.7852 19.252C19.0768 19.375 19.332 19.5459 19.5508 19.7646C19.7695 19.9834 19.9404 20.2386 20.0635 20.5303C20.1911 20.8219 20.2549 21.1341 20.2549 21.4668V21.7197L19.373 21.8633V21.4668C19.373 21.248 19.332 21.0452 19.25 20.8584C19.168 20.667 19.054 20.5007 18.9082 20.3594C18.7669 20.2181 18.6006 20.1064 18.4092 20.0244C18.2223 19.9424 18.0195 19.9014 17.8008 19.9014H17.4658C17.2471 19.9014 17.042 19.9424 16.8506 20.0244C16.6637 20.1064 16.4997 20.2181 16.3584 20.3594C16.2171 20.5007 16.1055 20.667 16.0234 20.8584C15.9414 21.0452 15.9004 21.248 15.9004 21.4668V23.9072C16.1237 23.6611 16.3903 23.4652 16.7002 23.3193C17.0146 23.1689 17.3496 23.0938 17.7051 23.0938H17.8486C18.1813 23.0938 18.4935 23.1576 18.7852 23.2852C19.0768 23.4082 19.332 23.5791 19.5508 23.7979C19.7695 24.0166 19.9404 24.2718 20.0635 24.5635C20.1911 24.8551 20.2549 25.1673 20.2549 25.5V26.7305ZM19.373 25.5C19.373 25.2812 19.332 25.0785 19.25 24.8916C19.168 24.7002 19.054 24.5339 18.9082 24.3926C18.7669 24.2513 18.6006 24.1396 18.4092 24.0576C18.2223 23.9756 18.0195 23.9346 17.8008 23.9346H17.4658C17.2471 23.9346 17.042 23.9756 16.8506 24.0576C16.6637 24.1396 16.4997 24.2513 16.3584 24.3926C16.2171 24.5339 16.1055 24.7002 16.0234 24.8916C15.9414 25.0785 15.9004 25.2812 15.9004 25.5V26.7305C15.9004 26.9492 15.9414 27.1543 16.0234 27.3457C16.1055 27.5326 16.2171 27.6989 16.3584 27.8447C16.4997 27.986 16.6637 28.0977 16.8506 28.1797C17.042 28.2617 17.2471 28.3027 17.4658 28.3027H17.8008C18.0195 28.3027 18.2223 28.2617 18.4092 28.1797C18.6006 28.0977 18.7669 27.986 18.9082 27.8447C19.054 27.6989 19.168 27.5326 19.25 27.3457C19.332 27.1543 19.373 26.9492 19.373 26.7305V25.5Z" fill="white"/>
</svg>
