<svg width="42" height="48" viewBox="0 0 42 48" fill="none" xmlns="http://www.w3.org/2000/svg">
<path d="M1 11.6977L21 1L41 11.6977V35.2326L21 47L1 35.2326V11.6977Z" fill="#42869D"/>
<path d="M21 1L1 11.6977V35.2326M21 1L41 11.6977V35.2326M21 1L1 35.2326M21 1L41 35.2326M1 35.2326L21 47L41 35.2326M1 35.2326H41" stroke="black" stroke-linejoin="round"/>
<path d="M24.1113 26.7305C24.1113 27.0632 24.0475 27.3753 23.9199 27.667C23.7969 27.9587 23.626 28.2139 23.4072 28.4326C23.1885 28.6514 22.9333 28.8245 22.6416 28.9521C22.3499 29.0752 22.0378 29.1367 21.7051 29.1367H21.2881C20.9554 29.1367 20.641 29.0752 20.3447 28.9521C20.0531 28.8245 19.7979 28.6514 19.5791 28.4326C19.3604 28.2139 19.1872 27.9587 19.0596 27.667C18.9365 27.3753 18.875 27.0632 18.875 26.7305V25.917C18.875 25.5023 18.9707 25.124 19.1621 24.7822C19.3581 24.4359 19.6133 24.1533 19.9277 23.9346C19.6133 23.7158 19.3581 23.4333 19.1621 23.0869C18.9707 22.7406 18.875 22.36 18.875 21.9453V21.4668C18.875 21.1341 18.9365 20.8219 19.0596 20.5303C19.1872 20.2386 19.3604 19.9834 19.5791 19.7646C19.7979 19.5459 20.0531 19.375 20.3447 19.252C20.641 19.1243 20.9554 19.0605 21.2881 19.0605H21.7051C22.0378 19.0605 22.3499 19.1243 22.6416 19.252C22.9333 19.375 23.1885 19.5459 23.4072 19.7646C23.626 19.9834 23.7969 20.2386 23.9199 20.5303C24.0475 20.8219 24.1113 21.1341 24.1113 21.4668V21.9453C24.1113 22.36 24.0156 22.7406 23.8242 23.0869C23.6328 23.4333 23.3799 23.7158 23.0654 23.9346C23.3799 24.1533 23.6328 24.4359 23.8242 24.7822C24.0156 25.124 24.1113 25.5023 24.1113 25.917V26.7305ZM23.2295 21.4668C23.2295 21.248 23.1885 21.0452 23.1064 20.8584C23.0244 20.667 22.9128 20.5007 22.7715 20.3594C22.6302 20.2181 22.4639 20.1064 22.2725 20.0244C22.0856 19.9424 21.8828 19.9014 21.6641 19.9014H21.3291C21.1104 19.9014 20.9053 19.9424 20.7139 20.0244C20.527 20.1064 20.3607 20.2181 20.2148 20.3594C20.0736 20.5007 19.9619 20.667 19.8799 20.8584C19.7979 21.0452 19.7568 21.248 19.7568 21.4668V21.9453C19.7568 22.1641 19.7979 22.3691 19.8799 22.5605C19.9619 22.7474 20.0736 22.9115 20.2148 23.0527C20.3607 23.194 20.527 23.3057 20.7139 23.3877C20.9053 23.4697 21.1104 23.5107 21.3291 23.5107H21.6641C21.8828 23.5107 22.0856 23.4697 22.2725 23.3877C22.4639 23.3057 22.6302 23.194 22.7715 23.0527C22.9128 22.9115 23.0244 22.7474 23.1064 22.5605C23.1885 22.3691 23.2295 22.1641 23.2295 21.9453V21.4668ZM23.2295 25.917C23.2295 25.6982 23.1885 25.4954 23.1064 25.3086C23.0244 25.1172 22.9128 24.9508 22.7715 24.8096C22.6302 24.6683 22.4639 24.5566 22.2725 24.4746C22.0856 24.3926 21.8828 24.3516 21.6641 24.3516H21.3291C21.1104 24.3516 20.9053 24.3926 20.7139 24.4746C20.527 24.5566 20.3607 24.6683 20.2148 24.8096C20.0736 24.9508 19.9619 25.1172 19.8799 25.3086C19.7979 25.4954 19.7568 25.6982 19.7568 25.917V26.7305C19.7568 26.9492 19.7979 27.1543 19.8799 27.3457C19.9619 27.5326 20.0736 27.6989 20.2148 27.8447C20.3607 27.986 20.527 28.0977 20.7139 28.1797C20.9053 28.2617 21.1104 28.3027 21.3291 28.3027H21.6641C21.8828 28.3027 22.0856 28.2617 22.2725 28.1797C22.4639 28.0977 22.6302 27.986 22.7715 27.8447C22.9128 27.6989 23.0244 27.5326 23.1064 27.3457C23.1885 27.1543 23.2295 26.9492 23.2295 26.7305V25.917Z" fill="white"/>
</svg>
